<?xml version="1.0" encoding="UTF-8" standalone="no"?>
<svg width="626px" height="176px" viewBox="0 0 626 176" version="1.1" xmlns="http://www.w3.org/2000/svg" xmlns:xlink="http://www.w3.org/1999/xlink">
    <!-- Generator: Sketch 3.6.1 (26313) - http://www.bohemiancoding.com/sketch -->
    <title>VECTOR_LOGO</title>
    <desc>Created with Sketch.</desc>
    <defs></defs>
    <g id="Page-1" stroke="none" stroke-width="1" fill="none" fill-rule="evenodd">
        <g id="VECTOR_LOGO" fill="#F7F9FA">
            <path d="M0,173.578 L76.232,9.413 L104.378,9.413 L28.146,173.578 L0,173.578" id="Fill-1"></path>
            <path d="M193.061,32.878 C190.483,32.169 186.733,31.694 183.921,31.694 C176.417,31.694 170.542,33.812 166.792,38.268 C164.214,41.554 162.571,45.768 162.571,56.327 L162.571,59.848 L197.757,59.848 L197.757,85.656 L162.571,85.642 L162.571,173.592 L132.081,173.592 L132.081,85.628 L102.76,85.628 L102.76,59.833 L132.081,59.841 L132.081,55.138 C132.081,36.844 136.302,25.83 144.273,18.082 C152.259,10.341 164.214,4.724 179.7,4.724 C185.798,4.724 191.429,5.192 197.757,6.843 L193.061,32.878" id="Fill-4"></path>
            <path d="M270.625,147.811 C288.444,147.811 300.644,133.979 300.644,116.854 C300.644,99.729 288.444,85.656 270.625,85.656 C252.794,85.656 240.602,99.729 240.602,116.848 C240.602,133.966 252.794,147.811 270.625,147.811 L270.625,147.811 Z M270.625,57.511 C305.099,57.511 331.13,84.019 331.13,116.854 C331.13,149.703 305.099,175.965 270.625,175.95 C236.14,175.95 210.115,149.682 210.115,116.84 C210.115,84.006 236.14,57.503 270.625,57.511 L270.625,57.511 Z" id="Fill-5"></path>
            <path d="M423.932,86.86 C421.82,86.159 417.359,85.67 412.904,85.67 C399.539,85.67 388.979,95.296 385.226,102.101 L385.226,173.635 L354.743,173.62 L354.743,59.869 L384.064,59.869 L384.064,71.363 C390.856,62.921 403.293,57.539 417.125,57.539 C421.587,57.539 424.165,58.006 427.444,58.467 L423.932,86.86" id="Fill-6"></path>
            <path d="M450.66,173.635 L481.144,173.635 L481.144,59.883 L450.66,59.883 L450.66,173.635 Z M465.895,0.078 C476.93,0.078 485.832,8.514 485.832,19.541 C485.832,30.561 476.93,39.004 465.895,39.004 C454.875,39.004 445.965,30.561 445.965,19.541 C445.965,8.514 454.875,0.078 465.895,0.078 L465.895,0.078 Z" id="Fill-7"></path>
            <path d="M564.568,147.854 C582.388,147.854 594.584,134.029 594.584,116.904 C594.584,99.771 582.388,85.698 564.568,85.691 C546.741,85.691 534.538,99.771 534.538,116.89 C534.538,134.016 546.741,147.854 564.568,147.854 L564.568,147.854 Z M564.568,57.553 C599.045,57.553 625.08,84.069 625.08,116.904 C625.08,149.738 599.045,176.007 564.568,176 C530.091,175.993 504.049,149.717 504.049,116.883 C504.049,84.056 530.091,57.553 564.568,57.553 L564.568,57.553 Z" id="Fill-9"></path>
        </g>
    </g>
</svg>
